<?xml version="1.0" encoding="UTF-8"?><svg xmlns="http://www.w3.org/2000/svg" xmlns:xlink="http://www.w3.org/1999/xlink" viewBox="0 0 190.36 174.09" width="40" height="40"><defs><style>.n{fill:url(#d);}.o{fill:url(#g);}.p{fill:url(#f);}.q{fill:url(#i);}.r{fill:url(#k);}.s{fill:url(#m);}.t{fill:none;}.u{fill:#006f3b;}.v{fill:#e8e8e9;}.w{fill:#7eb338;}.x{fill:#6c5735;}.y{fill:#8cc63f;}.a`{fill:#c0d3a5;}.aa{fill:#231f20;}.ab{fill:#0caaae;}.ac{fill:#981b1e;}.ad{fill:#9b9d9f;}.ae{fill:#81b797;}.af{fill:#28903a;}.ag{clip-path:url(#e);}.ah{clip-path:url(#l);}.ai{clip-path:url(#j);}.aj{clip-path:url(#h);}.ak{isolation:isolate;}</style><linearGradient id="d" x1="743.66" y1="-572.78" x2="756.63" y2="-572.78" gradientTransform="translate(-575.74 836.46) rotate(-8.95) scale(1.12 1.18)" gradientUnits="userSpaceOnUse"><stop offset="0" stop-color="#fff"/><stop offset=".3" stop-color="#0b0b0b"/><stop offset=".42" stop-color="#7f7f7f"/><stop offset=".65" stop-color="#eaeaea"/></linearGradient><clipPath id="e"><path class="n" d="M142.95,42.34c2.3-5.04,4.6-10.08,6.9-15.12-.46,1.02-.3,2.36,.55,3.47,1.21,1.6,3.35,2.14,4.77,1.22,.22-.15,.42-.32,.58-.51-1.75,2.1-3.49,4.19-5.24,6.29-1.75,2.1-3.49,4.19-5.24,6.29-.06,.08-.14,.14-.23,.2-.56,.36-1.4,.15-1.87-.48-.33-.44-.4-.96-.22-1.37Z"/></clipPath><linearGradient id="f" x1="751.1" y1="-570.36" x2="747.99" y2="-573.02" xlink:href="#d"/><radialGradient id="g" cx="333.81" cy="-300.96" fx="333.81" fy="-300.96" r="17.7" gradientTransform="translate(-284.15 130.07) rotate(27.92)" gradientUnits="userSpaceOnUse"><stop offset="0" stop-color="#f26522"/><stop offset=".18" stop-color="#ed1c24"/><stop offset=".4" stop-color="#d82128"/><stop offset=".67" stop-color="#c7252b"/><stop offset=".87" stop-color="#c1272d"/><stop offset="1" stop-color="#981b1e"/></radialGradient><clipPath id="h"><path class="t" d="M151.44,19.42l3.14-5.57c-.78,1.39-.51,3.26,.83,4.71,1.73,1.87,4.61,2.32,6.42,1,.41-.3,.74-.67,.97-1.08l-3.14,5.57c-.23,.41-.55,.78-.97,1.08-1.81,1.32-4.69,.87-6.42-1-1.34-1.45-1.61-3.32-.83-4.71Z"/></clipPath><linearGradient id="i" x1="809.3" y1="-550.71" x2="815.2" y2="-542.66" gradientTransform="translate(-509.14 738.43) rotate(-13.24)" gradientUnits="userSpaceOnUse"><stop offset="0" stop-color="#f26522"/><stop offset=".18" stop-color="#ed1c24"/><stop offset=".34" stop-color="#d82128"/><stop offset=".54" stop-color="#c7252b"/><stop offset=".69" stop-color="#c1272d"/><stop offset=".94" stop-color="#981b1e"/></linearGradient><clipPath id="j"><path class="t" d="M151.91,6.79c.52-.98,1.27-1.86,2.25-2.58,4.04-2.94,10.45-1.94,14.32,2.24-1.12,1.95-3.68,4.79-6.51,7.32-1.74-1.88-4.61-2.33-6.43-1-1.81,1.32-1.87,3.91-.14,5.79,1.73,1.87,4.61,2.32,6.42,1s1.88-3.91,.14-5.79c2.82-2.53,5.38-5.37,6.51-7.32,3.04,3.29,3.6,7.56,1.74,10.67-1.67,2.77-3.97,3.84-4.72,4.19-.66,.31-3.03,1.27-5.95,.78-2.68-.45-4.5-1.73-5.55-2.73-2.36-2.24-2.9-4.66-3.08-5.46-.37-1.67-.19-3.21-.15-3.5,.19-1.37,.5-2.36,1.14-3.62Z"/></clipPath><linearGradient id="k" x1="808.45" y1="-553.45" x2="828.69" y2="-553.45" gradientTransform="translate(-509.14 738.43) rotate(-13.24)" gradientUnits="userSpaceOnUse"><stop offset="0" stop-color="#fee328"/><stop offset=".02" stop-color="#fde128"/><stop offset=".65" stop-color="#fcc23f"/><stop offset="1" stop-color="#fcb748"/></linearGradient><clipPath id="l"><path class="x" d="M153.48,18.84c-.31-.34-1.13-1.26-1.75-2.57-.64-1.34-.86-2.5-.94-3.07-.21-1.59-.08-2.57,.08-3.51,.11-.64,.28-1.11,.52-1.81,.12-.34,.34-.78,.51-1.11-1.62,3.08-1,7.16,1.93,10.32,3.87,4.18,10.28,5.18,14.32,2.24,.87-.63,1.55-1.39,2.06-2.23-.24,.37-.58,.85-.84,1.2-.14,.19-.35,.42-.52,.59-.91,.93-1.37,1.24-2.09,1.72-.28,.19-.68,.4-.99,.55-.39,.18-.94,.39-1.35,.54-.48,.17-1.49,.38-1.87,.42-.42,.04-.98,.08-1.4,.08-.25,0-.58,0-.82-.04q-.91-.1-1.43-.22c-.65-.14-1.12-.31-1.34-.39-2.25-.82-3.69-2.29-4.08-2.73Z"/></clipPath><linearGradient id="m" x1="811.61" y1="-565.76" x2="827.05" y2="-540.59" gradientTransform="translate(-509.14 738.43) rotate(-13.24)" gradientUnits="userSpaceOnUse"><stop offset="0" stop-color="#f26522"/><stop offset=".44" stop-color="#c33e1f"/><stop offset=".8" stop-color="#a3241e"/><stop offset="1" stop-color="#981b1e"/></linearGradient></defs><g id="a"/><g id="b"><g id="c"><g><g class="ak"><g><path class="ae" d="M149.04,48.74c-.44,.22-.91,.42-1.4,.57-.49,.16-1,.28-1.53,.37-.53,.08-1.07,.13-1.62,.14-.55,0-1.12-.03-1.68-.11-.07,0-.14-.02-.21-.03-.07-.01-.14-.02-.21-.03-.07-.01-.14-.03-.2-.04-.07-.01-.14-.03-.2-.04l-24.9,34.95,15.21-7.58c2.9-1.42,5.61-2.85,8.14-4.29,2.51-1.44,4.85-2.89,7-4.36,2.14-1.46,4.1-2.93,5.88-4.41,1.77-1.47,3.36-2.95,4.78-4.45,.35-.37,.7-.75,1.04-1.13,.33-.38,.66-.75,.97-1.13,.32-.38,.62-.76,.92-1.14,.3-.38,.58-.76,.86-1.14l-12.85-6.15"/><path class="w" d="M130.84,40.02c-.32,.6-.69,1.2-1.1,1.81-.41,.61-.87,1.21-1.37,1.82-.5,.61-1.06,1.22-1.65,1.84-.6,.62-1.24,1.23-1.94,1.85-1.05,.94-2.19,1.87-3.44,2.79-1.25,.93-2.61,1.86-4.07,2.78-1.47,.93-3.04,1.85-4.71,2.77-1.68,.92-3.47,1.84-5.36,2.74L18.65,100.87,0,137.43l58.87,14.17,26.45-35.91-21.93-4.46,39.78-19.8,33.35-45.28c-.2-.29-.37-.6-.52-.91-.14-.31-.26-.63-.34-.96-.08-.33-.13-.66-.15-1-.02-.34,0-.67,.05-1.02l-4.72-2.26"/><path class="af" d="M138.6,37.95c.35-.22,.72-.42,1.11-.59s.8-.32,1.22-.45c.42-.12,.86-.22,1.32-.29,.45-.07,.91-.12,1.38-.13l14.89-20.22c-.25-.26-.51-.51-.78-.77-.26-.25-.53-.51-.81-.76-.27-.25-.56-.5-.84-.75-.29-.25-.58-.49-.87-.74-2.24-1.86-4.64-3.51-7.18-4.96-2.51-1.43-5.18-2.67-8-3.72-2.79-1.04-5.75-1.9-8.87-2.58-3.09-.68-6.35-1.18-9.78-1.52-3.68-.36-7.23-.52-10.65-.47-3.41,.05-6.7,.3-9.88,.75-3.19,.45-6.28,1.11-9.28,1.98-3.01,.87-5.95,1.95-8.82,3.24-.52,.24-1.03,.48-1.54,.72-.51,.25-1.01,.5-1.5,.76-.5,.26-.99,.52-1.47,.79-.48,.27-.96,.54-1.43,.83l23.97,11.2c1.02-.43,2.07-.78,3.17-1.05,1.09-.28,2.23-.48,3.41-.62,1.18-.13,2.4-.19,3.67-.18,1.27,.01,2.59,.09,3.96,.25,1.51,.17,2.94,.42,4.27,.75,1.34,.33,2.58,.73,3.74,1.22,1.16,.49,2.23,1.05,3.22,1.7,.99,.65,1.88,1.39,2.69,2.2,.71,.72,1.32,1.47,1.83,2.25,.51,.78,.92,1.59,1.23,2.44,.31,.85,.51,1.73,.61,2.64,.1,.92,.08,1.86-.04,2.84l.05,.02,6.01,3.22Z"/><polyline class="ab" points="157.45 130.36 95.15 117.69 69.35 154.13 152.25 174.09 157.45 130.36"/><path class="u" d="M73.4,12.13c-1.62,1.19-3.16,2.47-4.62,3.83-1.47,1.38-2.85,2.84-4.16,4.4-1.32,1.57-2.55,3.24-3.7,5.01-1.16,1.79-2.24,3.68-3.24,5.68l-.16,.32,31.43,4.14,.8-2.08c.42-1.08,.88-2.11,1.39-3.07,.5-.95,1.05-1.85,1.65-2.69,.59-.83,1.23-1.61,1.91-2.33,.68-.72,1.4-1.38,2.17-1.99l-23.48-11.22"/></g></g><g><path class="y" d="M162.44,20.87l-12.43,17.45c.5,.36,.94,.76,1.32,1.2,.38,.43,.69,.9,.94,1.4,.24,.5,.41,1.02,.5,1.56,.08,.54,.08,1.09,0,1.66l-.02,.1-.02,.1-.03,.1-.02,.1,12.08,5.64c.38-.75,.71-1.5,1.02-2.26,.3-.75,.57-1.5,.8-2.27,.23-.76,.42-1.51,.59-2.28,.16-.76,.29-1.51,.39-2.28,.22-1.92,.29-3.78,.17-5.59-.11-1.79-.39-3.54-.83-5.23-.43-1.66-1.03-3.29-1.77-4.87-.75-1.56-1.64-3.07-2.68-4.54"/><path class="aa" d="M145.4,36.57c-.15-.02-.3-.03-.44-.04-.15,0-.3-.02-.44-.03-.15,0-.3,0-.44-.02-.14,0-.29,0-.43,0-.48,.02-.94,.05-1.39,.13-.45,.07-.89,.17-1.31,.3-.42,.13-.84,.28-1.22,.45-.4,.17-.76,.37-1.12,.59-.38,.23-.73,.49-1.04,.78-.32,.29-.61,.59-.87,.93-.25,.33-.47,.68-.65,1.05-.18,.37-.31,.76-.41,1.16l-.02,.1-.03,.1v.1l-.03,.11c-.05,.34-.06,.68-.04,1.02,.02,.33,.06,.67,.15,.99,.08,.32,.19,.65,.33,.96,.14,.31,.32,.61,.51,.91,.28,.4,.6,.78,.98,1.13,.38,.36,.79,.68,1.26,.97,.46,.3,.96,.56,1.5,.77,.55,.22,1.12,.4,1.73,.53l.21,.04,.21,.04,.21,.03,.21,.04c.57,.07,1.12,.11,1.68,.1,.55,0,1.09-.05,1.62-.13,.53-.09,1.04-.22,1.53-.37,.49-.16,.96-.35,1.4-.58,.46-.23,.89-.5,1.29-.8,.4-.31,.75-.63,1.06-.99,.31-.36,.58-.74,.79-1.14,.21-.41,.38-.83,.49-1.27l.02-.1,.03-.1,.02-.1,.02-.1c.09-.57,.09-1.12,0-1.66-.09-.54-.26-1.06-.5-1.56-.24-.5-.56-.97-.94-1.4-.39-.44-.83-.84-1.32-1.2-.32-.22-.65-.43-1-.62-.35-.19-.72-.36-1.11-.5-.39-.15-.79-.28-1.21-.39-.42-.1-.86-.18-1.3-.24"/><path class="v" d="M154.02,32.7c-1.78,1.61-3.56,3.22-5.34,4.84,.11,.06,.23,.11,.33,.17,.35,.19,.68,.4,1,.62h0l4.01-5.63m24.96-28.13h-.25l-.09,.02h-.06l-.08,.04h-.03l-.04,.02-.07,.04-.06,.04-.04,.02-.03,.02-.02,.02-.02,.02h-.02c-.14,.13-.28,.24-.4,.35l-.02,.02h0l-.02,.02-.06,.06c-.11,.09-.19,.17-.27,.26l-.06,.06h0c-.09,.1-.18,.21-.27,.31l-.07,.07v.02h-.02l-.04,.06c-.09,.11-.19,.23-.28,.33h0l-.1,.14-.07,.09v.02l-.18,.24h0c-.78,1.12-1.06,2.01-1.19,2.41l-.04,.13-.02,.05c-.02,.09-.05,.18-.08,.28l-.04,.12v.06l-.04,.14c-.03,.1-.05,.2-.07,.29v.03l-.04,.17c-.02,.09-.04,.18-.04,.28l-.03,.13-.02,.14c0,.09-.03,.25-.04,.45v.1c-.02,.16-.03,.32-.03,.43v.65h0v.23h0c0,.15,.03,.31,.04,.48h0v.04l.04,.23,.02,.13,.02,.1,.04,.24c-2.4,1.86-4.82,3.74-7.23,5.6l-.09-.05-.07-.04-.15-.09-.07-.04c-.13-.06-.24-.14-.37-.2l-.08-.04-.05-.03-.08-.04h-.03l-.11-.06-.12-.05h-.03l-.09-.05-.07-.03c-.13-.06-.27-.13-.4-.18-.2-.08-.32-.13-.52-.2-.08-.03-.17-.05-.29-.1h-.03l-.17-.06-.13-.04-.13-.04h-.04c-.3-.09-.7-.2-1.01-.25l-.24-.04-.14-.03c-.32-.05-.74-.11-1.05-.12h-.14l-.1-.02c-.2,0-.39-.02-.59-.02-.07,0-.14,0-.2,0-.16,0-.3,0-.53,.02-1.17,.06-2.21,.29-3.11,.58h-.03l-.03,.02h-.03c-.3,.11-.43,.15-.68,.26h-.03c-.16,.07-.37,.16-.55,.25h-.02l-.13,.06-.03,.02h-.03c-.22,.11-.51,.27-.73,.4l-.03,.02c-.13,.08-.29,.18-.43,.26l-.15,.1-.03,.02-.03,.02-.12,.08-.08,.05c-.15,.11-.32,.22-.44,.31l-.03,.03-.16,.15-.03,.03h0l-.15,.23h0v.04l-.12,.23-.02,.04v.02c-.04,.09-.06,.19-.09,.29h0v.09c-.03,.09-.04,.19-.04,.29v.05l-.02,.08c0,.23,0,.49,.03,.76v.04c.02,.13,.03,.25,.05,.39v.06l.02,.05v.07c.04,.14,.06,.28,.1,.42v.04c.08,.32,.17,.64,.29,.98l.05,.17h0v.02c.05,.15,.11,.3,.16,.46l.04,.08,.02,.05,.04,.1v.02l.03,.05c.31,.77,.7,1.6,1.18,2.48l.04,.08,.14,.26c.25,.44,.52,.88,.79,1.31l6.37-8.95c1.04,1.47,1.94,2.98,2.68,4.54,.75,1.58,1.34,3.2,1.77,4.87,.44,1.69,.72,3.44,.83,5.23,.09,1.46,.07,2.96-.06,4.5h.14l.12-.02h.02l.09-.03,.12-.03,.09-.03,.08-.03,.03-.02,.08-.04,.04-.03,.04-.02,.08-.06,.04-.02,.03-.02,.03-.03h.02l.02-.03c.13-.1,.24-.2,.35-.29l.19-.16,.04-.04h0c.16-.15,.35-.32,.5-.48l.11-.11,.02-.03c.11-.12,.23-.24,.33-.37l.13-.13,.02-.03,.02-.02,.1-.13c.08-.1,.16-.2,.24-.3l.07-.1h0l.02-.03,.07-.09,.1-.14,.04-.06c.1-.14,.21-.31,.29-.44h0c.07-.12,.14-.22,.21-.33,.66-1.05,1.12-2.15,1.37-3.31,.04-.15,.08-.33,.12-.5l.03-.11v-.08l.02-.05c.02-.09,.05-.26,.09-.5,.12-.88,.18-1.93,.04-3.1-.02-.14-.03-.27-.04-.37v-.07l-.02-.04v-.06l-.02-.06-.03-.13v-.05l-.04-.21v-.04l-.03-.1v-.02l-.03-.09c-.03-.13-.05-.25-.08-.36l-.04-.13c-.02-.1-.04-.18-.07-.27l-.07-.23h0l7.25-5.57h.03l.2,.1c.13,.06,.26,.12,.4,.17l.05,.03,.06,.02,.13,.04,.14,.05,.04,.02h.05c.14,.06,.29,.11,.43,.15l.06,.02h.04l.13,.05h.02l.18,.05h.06l.03,.02h.05l.03,.02h.02c.31,.07,.5,.1,.5,.1h.1c.16,.04,.35,.05,.5,.07l.15,.02,.25,.02h.12c.18,.02,.41,.02,.58,.02h.06c.11,0,.22,0,.32-.02l.18-.02h0c.17,0,.34-.03,.51-.04h0c.14-.03,.29-.04,.42-.07l.11-.02,.09-.02,.08-.02h.04c.07-.02,.15-.04,.24-.06l.07-.02h.03l.04-.02,.25-.06,.13-.04,.09-.02h.03l.02-.02c.12-.04,.24-.08,.37-.13l.1-.04h.03l.09-.04c.13-.05,.26-.11,.37-.15h.02l.2-.1h0l.24-.13,.07-.04h.03c.14-.09,.34-.19,.48-.28l.35-.22c.13-.09,.31-.22,.46-.32h.02l.03-.04,.1-.1h0v-.02l.1-.15,.02-.02v-.02l.08-.2h0l.04-.22v-.05h0v-.04c0-.14,.02-.28,0-.44v-.15c-.04-.2-.06-.41-.12-.65v-.04l-.02-.04v-.04c-.07-.25-.15-.51-.25-.8h0c-.04-.14-.1-.28-.15-.41l-.02-.04v-.02l-.1-.23-.08-.2-.03-.06-.03-.06-.02-.02-.04-.09-.04-.08c-.04-.08-.08-.17-.13-.26l-.08-.16-.12-.24-.07-.14-.13-.26-.04-.07-.11-.21v-.02l-.16-.27-.12-.22h0l-.11-.19c-.62-1.05-1.33-2.08-2.08-3.06-.17-.22-.34-.43-.51-.64l-.2-.23c-.1-.13-.21-.25-.32-.38-.08-.1-.16-.19-.24-.29l-.27-.3c-.09-.1-.18-.2-.27-.3l-.15-.17c-.12-.14-.25-.26-.38-.4-.23-.23-.47-.46-.69-.68l-.09-.09c-.13-.12-.25-.23-.38-.34l-.06-.05c-.16-.14-.32-.28-.48-.41l-.16-.13-.21-.17-.22-.16-.04-.03-.08-.05-.07-.06h0l-.16-.12-.13-.09-.16-.11-.06-.04-.22-.14-.06-.04-.04-.03-.16-.09h0l-.07-.04c-.16-.09-.32-.16-.48-.23l-.08-.03-.24-.1-.23-.06h-.07l-.14-.04h-.08l-.12-.03"/><path class="a`" d="M162.44,20.87l-6.37,8.95c.13,.22,.27,.43,.41,.65-.82,.74-1.64,1.49-2.46,2.23l-4.01,5.63c.5,.36,.94,.76,1.32,1.2,.06,.07,.12,.13,.17,.2,2.69-1.75,5.37-3.51,8.06-5.26l.07,.07c.12,.14,.23,.26,.35,.39,.12,.13,.24,.26,.36,.39,.21,.22,.42,.43,.63,.65l.08,.08,.16,.15,.11,.11h0l.22,.23h0l.18,.16h0l.23,.22h0l.12,.11,.06,.05,.24,.22,.17,.14,.27,.22h0l.04,.04c.15,.13,.31,.25,.46,.36l.02,.02,.03,.03,.03,.02c.12,.09,.25,.19,.38,.28h.02l.1,.07,.24,.17,.12,.08,.07,.05h0l.22,.15h0l.13,.08,.24,.14,.12,.07,.25,.14,.09,.04,.06,.04,.22,.1,.15,.06h0c.1,.04,.2,.09,.29,.13l.06,.02,.22,.08h0l.07,.03c.13,.04,.25,.07,.37,.09,.1,.03,.19,.04,.29,.05l.09,.02h.28l.1,.02c.13-1.53,.15-3.03,.06-4.5-.11-1.79-.39-3.54-.83-5.23-.43-1.66-1.03-3.29-1.77-4.87-.75-1.56-1.64-3.07-2.68-4.54"/><path class="ad" d="M148.67,37.53c-1.86,1.68-3.71,3.36-5.57,5.04h0v.02l-.02,.02v.02h-.02v.03l1.3,1.7h.02l.04-.02h.04c2.35-1.54,4.7-3.08,7.05-4.61-.05-.07-.11-.14-.17-.2-.39-.44-.83-.84-1.32-1.2h0c-.32-.22-.65-.43-1-.62-.11-.06-.22-.12-.33-.17"/></g><g><g><path class="n" d="M142.95,42.34c2.3-5.04,4.6-10.08,6.9-15.12-.46,1.02-.3,2.36,.55,3.47,1.21,1.6,3.35,2.14,4.77,1.22,.22-.15,.42-.32,.58-.51-1.75,2.1-3.49,4.19-5.24,6.29-1.75,2.1-3.49,4.19-5.24,6.29-.06,.08-.14,.14-.23,.2-.56,.36-1.4,.15-1.87-.48-.33-.44-.4-.96-.22-1.37Z"/><g class="ag"><path class="p" d="M142.95,42.34l6.9-15.12c-.46,1.02-.3,2.36,.55,3.47,1.21,1.6,3.35,2.14,4.77,1.22,.22-.15,.42-.32,.58-.51l-10.48,12.58c-.06,.08-.14,.14-.23,.2-.56,.36-1.4,.15-1.87-.48-.33-.44-.4-.96-.22-1.37"/></g></g><path class="o" d="M164.47,22.04c-.21-.46-.86-1.86-2.35-3.5-.64-.67-2.33-2.44-5.26-3.52-2.97-1.09-5.4-.84-6.31-.75-.16,.02-1.57,.18-3.1,.75l-1.2,.51c-.53,.27-1.21,.66-1.71,.99-.05,.03-1.16,.76-2.28,1.94-.21,.21-.47,.51-.65,.75-.16,.21-.33,.45-.5,.69-.2,.27-.39,.54-.56,.82-.02,.02-.03,.05-.04,.07,.01-.02,.02-.03,.04-.05-2.44,4.02-1.72,9.55,2.22,13.81,4.99,5.4,13.27,6.69,18.49,2.89,1.28-.93,2.25-2.08,2.92-3.37,0,.02-.01,.04-.02,.05,0-.02,.02-.04,.03-.06,.11-.21,.21-.42,.3-.63,.18-.38,.35-.77,.46-1.11,.38-1.12,.44-1.47,.62-2.4,0-.02,.33-1.85,.08-3.74-.09-.73-.29-2.24-1.17-4.14Z"/><g class="aj"><path class="q" d="M151.44,19.42l3.14-5.57c-.78,1.39-.51,3.26,.83,4.71,1.73,1.87,4.61,2.32,6.42,1,.41-.3,.74-.67,.97-1.08l-3.14,5.57c-.23,.41-.55,.78-.97,1.08-1.81,1.32-4.69,.87-6.42-1-1.34-1.45-1.61-3.32-.83-4.71"/></g><g class="ai"><path class="r" d="M151.91,6.79c-2.89,5.95,.07,10.34,1.48,11.95,2.74,3.14,7.45,4.31,11.44,2.84,3.26-1.2,4.79-3.54,5.37-4.43,1.89-3.15,1.33-7.42-1.72-10.71-1.12,1.95-3.68,4.79-6.51,7.32,1.74,1.87,1.67,4.46-.14,5.79s-4.69,.87-6.42-1c-1.74-1.88-1.67-4.46,.14-5.79,1.82-1.32,4.69-.87,6.43,1,2.82-2.53,5.38-5.37,6.51-7.32-3.87-4.18-10.28-5.18-14.32-2.24-.98,.71-1.73,1.59-2.25,2.58"/></g><g><path class="x" d="M153.48,18.84c-.31-.34-1.13-1.26-1.75-2.57-.64-1.34-.86-2.5-.94-3.07-.21-1.59-.08-2.57,.08-3.51,.11-.64,.28-1.11,.52-1.81,.12-.34,.34-.78,.51-1.11-1.62,3.08-1,7.16,1.93,10.32,3.87,4.18,10.28,5.18,14.32,2.24,.87-.63,1.55-1.39,2.06-2.23-.24,.37-.58,.85-.84,1.2-.14,.19-.35,.42-.52,.59-.91,.93-1.37,1.24-2.09,1.72-.28,.19-.68,.4-.99,.55-.39,.18-.94,.39-1.35,.54-.48,.17-1.49,.38-1.87,.42-.42,.04-.98,.08-1.4,.08-.25,0-.58,0-.82-.04q-.91-.1-1.43-.22c-.65-.14-1.12-.31-1.34-.39-2.25-.82-3.69-2.29-4.08-2.73Z"/><g class="ah"><path class="ac" d="M153.48,18.84c-3.05-3.41-3.64-7.92-1.58-12.06-1.62,3.08-1,7.16,1.93,10.32,3.87,4.18,10.28,5.18,14.32,2.24,.87-.63,1.55-1.39,2.06-2.23-4.69,7.23-13.04,5.86-16.74,1.73"/></g></g><path class="s" d="M168.48,6.45c3.87,4.18,3.73,9.95-.32,12.9-4.04,2.95-10.46,1.94-14.32-2.24-3.87-4.18-3.72-9.96,.32-12.9,4.04-2.94,10.45-1.94,14.32,2.24Z"/></g></g></g></g></svg>